<svg version="1.1" viewBox="0.0 0.0 196.0 196.0" fill="none" stroke="none" stroke-linecap="square" stroke-miterlimit="10" xmlns:xlink="http://www.w3.org/1999/xlink" xmlns="http://www.w3.org/2000/svg"><clipPath id="p.0"><path d="m0 0l196.0 0l0 196.0l-196.0 0l0 -196.0z" clip-rule="nonzero"/></clipPath><g clip-path="url(#p.0)"><path fill="#000000" fill-opacity="0.0" d="m0 0l196.0 0l0 196.0l-196.0 0z" fill-rule="evenodd"/><path fill="#000000" fill-opacity="0.0" d="m11.606299 11.606299l172.78741 0l0 172.78741l-172.78741 0z" fill-rule="evenodd"/><path stroke="#eb6237" stroke-width="8.0" stroke-linejoin="round" stroke-linecap="butt" d="m11.606299 11.606299l172.78741 0l0 172.78741l-172.78741 0z" fill-rule="evenodd"/><path fill="#eb6237" d="m46.864944 85.2l0 -42.65625l15.1875 0q6.609375 0 10.28125 3.0625q3.6875 3.0625 3.6875 8.5625q0 2.765625 -1.5 4.9375q-1.484375 2.15625 -4.203125 3.21875l0 0.84375q3.09375 1.078125 4.828125 3.671875q1.734375 2.578125 1.734375 6.203125q0 5.703125 -3.890625 8.9375q-3.890625 3.21875 -10.765625 3.21875l-15.359375 0zm9.0 -8.375l6.25 0q2.828125 0 4.34375 -1.1875q1.515625 -1.203125 1.515625 -3.390625q0 -2.25 -1.515625 -3.5q-1.515625 -1.25 -4.34375 -1.25l-6.25 0l0 9.328125zm0 -17.015625l6.078125 0q2.78125 0 4.25 -1.140625q1.46875 -1.140625 1.46875 -3.28125q0 -2.125 -1.46875 -3.296875q-1.46875 -1.1875 -4.25 -1.1875l-6.078125 0l0 8.90625zm27.14212 25.390625l0 -8.53125l10.515625 0l0 -25.59375l-10.515625 0l0 -8.53125l29.984375 0l0 8.53125l-10.515625 0l0 25.59375l10.515625 0l0 8.53125l-29.984375 0zm47.845245 0l0 -34.125l-12.109375 0l0 -8.53125l33.17186 0l0 8.53125l-12.109375 0l0 34.125l-8.95311 0z" fill-rule="nonzero"/><path fill="#eb6237" d="m44.989944 149.19998l0 -42.656242l12.109375 0l3.296875 21.703117l0.96875 0l3.25 -21.703117l11.734375 0l0 42.656242l-7.734375 0l0 -18.078125l0.59375 -16.749992l-0.96875 0l-3.203125 21.234367l-8.6875 0l-3.25 -21.234367l-0.96875 0l0.59375 16.749992l0 18.078125l-7.734375 0zm53.01712 1.015625q-8.265625 0 -12.546875 -5.65625q-4.265625 -5.65625 -4.265625 -16.687492q0 -11.046875 4.265625 -16.6875q4.28125 -5.65625 12.546875 -5.65625q8.265625 0 12.53125 5.65625q4.265625 5.640625 4.265625 16.6875q0 11.031242 -4.265625 16.687492q-4.265625 5.65625 -12.53125 5.65625zm0 -8.21875q3.9375 0 5.859375 -3.484375q1.921875 -3.5 1.921875 -10.640617q0 -7.15625 -1.921875 -10.640625q-1.921875 -3.5 -5.859375 -3.5q-3.953125 0 -5.875 3.5q-1.921875 3.484375 -1.921875 10.640625q0 7.1406174 1.921875 10.640617q1.921875 3.484375 5.875 3.484375zm22.32962 7.203125l0 -42.656242l13.453125 0q8.95311 0 13.64061 5.4375q4.703125 5.4375 4.703125 15.890625q0 10.390617 -4.703125 15.859367q-4.6875 5.46875 -13.64061 5.46875l-13.453125 0zm9.015625 -8.375l4.4375 0q4.6875 0 6.9999847 -3.1875q2.328125 -3.203125 2.328125 -9.765617q0 -6.5625 -2.328125 -9.765625q-2.3124847 -3.203125 -6.9999847 -3.203125l-4.4375 0l0 25.921867z" fill-rule="nonzero"/></g></svg>